<?xml version="1.0" standalone="no"?>
<!DOCTYPE svg PUBLIC "-//W3C//DTD SVG 20010904//EN"
 "http://www.w3.org/TR/2001/REC-SVG-20010904/DTD/svg10.dtd">
<svg version="1.0" xmlns="http://www.w3.org/2000/svg"
 width="1024.000000pt" height="1024.000000pt" viewBox="0 0 1024.000000 1024.000000"
 preserveAspectRatio="xMidYMid meet">
<metadata>
Created by potrace 1.14, written by Peter Selinger 2001-2017
</metadata>
<g transform="translate(0.000000,1024.000000) scale(0.100000,-0.100000)"
fill="#000000" stroke="none">
<path d="M5020 10230 c-288 -36 -549 -214 -676 -462 l-24 -48 -480 0 -480 0 0
-260 0 -260 -1132 -2 -1133 -3 -40 -22 c-47 -25 -85 -64 -111 -113 -18 -34
-19 -162 -19 -4460 0 -4298 1 -4426 19 -4460 26 -49 64 -88 111 -113 l40 -22
4025 0 4025 0 40 22 c47 25 85 64 111 113 18 34 19 162 19 4460 0 4298 -1
4426 -19 4460 -26 49 -64 88 -111 113 l-40 22 -1132 3 -1133 2 0 260 0 260
-480 0 -480 0 -24 48 c-55 108 -161 228 -273 308 -164 118 -403 179 -603 154z
m263 -502 c79 -37 160 -116 200 -197 30 -61 32 -72 32 -171 0 -98 -2 -110 -32
-170 -41 -83 -110 -152 -193 -193 -60 -30 -72 -32 -170 -32 -93 0 -111 3 -163
27 -80 38 -160 117 -200 197 -30 61 -32 72 -32 171 0 98 2 110 32 170 50 103
140 182 246 216 70 23 210 14 280 -18z m-1923 -1368 l0 -80 1760 0 1760 0 0
80 0 80 760 0 760 0 0 -3840 0 -3840 -3280 0 -3280 0 0 3840 0 3840 760 0 760
0 0 -80z"/>
<path d="M3430 7229 c-279 -22 -552 -186 -709 -425 -220 -335 -208 -773 30
-1096 152 -206 383 -341 644 -378 393 -56 797 156 975 510 172 342 131 742
-105 1037 -202 252 -500 378 -835 352z m627 -450 c56 -27 93 -87 93 -153 0
-26 -5 -57 -12 -69 -6 -12 -68 -81 -137 -153 -186 -192 -350 -402 -482 -616
-38 -61 -55 -79 -94 -98 -57 -28 -122 -22 -171 15 -51 39 -462 599 -470 641
-26 140 142 258 257 181 19 -12 92 -99 162 -192 71 -94 132 -171 137 -173 4
-2 31 30 60 70 149 206 442 523 510 552 49 21 96 20 147 -5z"/>
<path d="M4954 6666 c-56 -25 -74 -59 -74 -143 0 -47 6 -85 15 -103 33 -64
-55 -60 1385 -60 1444 0 1352 -4 1386 62 23 45 17 177 -11 208 -46 52 10 50
-1377 50 -1060 -1 -1299 -3 -1324 -14z"/>
<path d="M5544 5585 c-47 -24 -64 -62 -64 -145 0 -44 6 -82 15 -100 33 -63
-25 -60 1085 -60 930 0 1014 1 1040 17 48 28 63 68 58 156 -3 71 -6 79 -36
110 l-32 32 -1018 2 c-891 2 -1021 1 -1048 -12z"/>
<path d="M3320 4815 c-550 -124 -881 -688 -714 -1217 81 -255 247 -453 479
-571 358 -182 787 -124 1080 145 98 91 158 172 216 293 164 340 115 730 -127
1026 -113 138 -296 258 -474 309 -98 29 -360 37 -460 15z m737 -436 c56 -27
93 -87 93 -153 0 -26 -5 -57 -11 -69 -7 -12 -62 -74 -123 -137 -194 -200 -351
-398 -474 -597 -69 -112 -105 -143 -175 -150 -31 -3 -54 2 -87 19 -38 20 -77
65 -262 313 -124 165 -223 306 -230 328 -23 76 23 171 99 203 50 21 115 18
154 -9 19 -12 94 -102 168 -199 l133 -178 56 78 c145 203 443 526 512 556 49
21 96 20 147 -5z"/>
<path d="M4944 4465 c-47 -24 -64 -62 -64 -145 0 -44 6 -82 15 -100 33 -64
-55 -60 1385 -60 1211 0 1314 1 1340 17 48 28 63 68 58 156 -3 71 -6 79 -36
110 l-32 32 -1318 2 c-1158 2 -1321 1 -1348 -12z"/>
<path d="M5544 3344 c-47 -23 -64 -61 -64 -144 0 -44 6 -82 15 -100 33 -63
-25 -60 1085 -60 919 0 1014 2 1040 16 44 27 60 64 60 141 0 79 -13 109 -59
140 l-34 23 -1006 0 c-875 0 -1010 -2 -1037 -16z"/>
<path d="M2619 2217 c-18 -12 -39 -34 -46 -47 -19 -38 -16 -156 4 -191 38 -64
-162 -59 2548 -59 2292 0 2469 1 2495 17 48 28 63 68 58 156 -3 71 -6 79 -36
110 l-32 32 -2479 3 -2478 2 -34 -23z"/>
</g>
</svg>
